 <svg version="1.0" xmlns="http://www.w3.org/2000/svg"  width="40px" height="40px" viewBox="0 0 300.000000 300.000000" preserveAspectRatio="xMidYMid meet">  <g transform="translate(0.000000,300.000000) scale(0.050000,-0.050000)" fill="#5990d3" stroke="none"> <path d="M4582 4232 c-51 -62 -20 -2107 33 -2207 130 -243 660 -266 587 -25 l-25 85 -97 -13 c-245 -33 -240 -57 -240 1135 0 755 -6 1011 -24 1029 -34 34 -206 31 -234 -4z"/> <path d="M1380 3506 c-317 -109 -446 -348 -447 -826 -1 -591 210 -830 735 -830 488 0 719 124 565 303 l-48 55 -120 -54 c-414 -186 -764 -66 -834 286 -8 39 -18 86 -24 105 -9 33 25 35 522 35 l532 0 39 65 c87 142 -20 571 -183 734 -156 154 -489 212 -737 127z m459 -236 c117 -60 201 -235 201 -418 0 -45 -791 -69 -823 -25 -30 42 75 321 144 384 101 92 355 123 478 59z"/> <path d="M3320 3521 c-87 -26 -180 -81 -259 -152 l-76 -69 -12 76 c-21 130 -52 155 -166 133 -93 -18 -97 -22 -90 -79 4 -33 13 -546 20 -1139 l13 -1080 65 -18 c40 -12 90 -12 130 0 l65 19 0 394 c0 217 2 394 4 394 2 0 43 -26 90 -57 401 -266 881 -45 987 454 150 707 -246 1284 -771 1124z m261 -238 c304 -115 352 -919 68 -1135 -112 -85 -368 -85 -524 1 l-105 57 1 452 0 452 91 69 c161 121 329 158 469 104z"/> </g> </svg>